# xmcd
#
# Track frame offsets:
# 150
# 12226
# 33716
# 52244
# 69659
# 91144
#
# Disc length: 1624 seconds
#
#
# Revision: 0
# Processed by: cddbd v1.5.2PL0 Copyright (c) Steve Scherf et al.
# Submitted via: FreeRIP 2.943 
#
DISCID=4e065606
DTITLE=consular - don't cross the swine
DYEAR=2007
DGENRE=Sludge Metal
TTITLE0=introduction
TTITLE1=snake eater
TTITLE2=open your mouth
TTITLE3=torn face
TTITLE4=prisoner
TTITLE5=living in the land of the blind
EXTD=qq
EXTT0=
EXTT1=
EXTT2=
EXTT3=
EXTT4=
EXTT5=
PLAYORDER=
